<?xml version="1.0" encoding="utf-8" standalone="no"?>
<!DOCTYPE svg PUBLIC "-//W3C//DTD SVG 1.1//EN"
  "http://www.w3.org/Graphics/SVG/1.1/DTD/svg11.dtd">
<svg xmlns:xlink="http://www.w3.org/1999/xlink" width="504pt" height="414pt" viewBox="0 0 504 414" xmlns="http://www.w3.org/2000/svg" version="1.1">
 <metadata>
  <rdf:RDF xmlns:dc="http://purl.org/dc/elements/1.1/" xmlns:cc="http://creativecommons.org/ns#" xmlns:rdf="http://www.w3.org/1999/02/22-rdf-syntax-ns#">
   <cc:Work>
    <dc:type rdf:resource="http://purl.org/dc/dcmitype/StillImage"/>
    <dc:format>image/svg+xml</dc:format>
    <dc:creator>
     <cc:Agent>
      <dc:title>Matplotlib v3.11.2, https://matplotlib.org/</dc:title>
     </cc:Agent>
    </dc:creator>
   </cc:Work>
  </rdf:RDF>
 </metadata>
 <defs>
  <style type="text/css">*{stroke-linejoin: round; stroke-linecap: butt}</style>
 </defs>
 <g id="figure_1">
  <g id="patch_1">
   <path d="M 0 414 
L 504 414 
L 504 0 
L 0 0 
z
" style="fill: #ffffff"/>
  </g>
  <g id="axes_1">
   <g id="patch_2">
    <path d="M 182.16 172.8 
L 293.04 172.8 
Q 298.8 172.8 298.8 167.04 
L 298.8 99.36 
Q 298.8 93.6 293.04 93.6 
L 182.16 93.6 
Q 176.4 93.6 176.4 99.36 
L 176.4 167.04 
Q 176.4 172.8 182.16 172.8 
z
" clip-path="url(#p828351fa85)" style="fill: #f1f3f5; stroke-dasharray: 3.6,1.8; stroke-dashoffset: 0; stroke: #57606a; stroke-width: 0.9; stroke-linejoin: miter"/>
   </g>
   <g id="patch_3">
    <path d="M 81.36 392.4 
L 390.24 392.4 
Q 396 392.4 396 386.64 
L 396 220.32 
Q 396 214.56 390.24 214.56 
L 81.36 214.56 
Q 75.6 214.56 75.6 220.32 
L 75.6 386.64 
Q 75.6 392.4 81.36 392.4 
z
" clip-path="url(#p828351fa85)" style="fill: #e6f4ef; stroke-dasharray: 3.6,1.8; stroke-dashoffset: 0; stroke: #009e73; stroke-width: 0.9; stroke-linejoin: miter"/>
   </g>
   <g id="patch_4">
    <path d="M 68.4 25.92 
C 70.882301 25.92 73.263268 24.933771 75.018519 23.178519 
C 76.773771 21.423268 77.76 19.042301 77.76 16.56 
C 77.76 14.077699 76.773771 11.696732 75.018519 9.941481 
C 73.263268 8.186229 70.882301 7.2 68.4 7.2 
C 65.917699 7.2 63.536732 8.186229 61.781481 9.941481 
C 60.026229 11.696732 59.04 14.077699 59.04 16.56 
C 59.04 19.042301 60.026229 21.423268 61.781481 23.178519 
C 63.536732 24.933771 65.917699 25.92 68.4 25.92 
z
" clip-path="url(#p828351fa85)" style="fill: #08427b"/>
   </g>
   <g id="patch_5">
    <path d="M 38.88 74.16 
L 97.92 74.16 
Q 108 74.16 108 64.08 
L 108 36.72 
Q 108 26.64 97.92 26.64 
L 38.88 26.64 
Q 28.8 26.64 28.8 36.72 
L 28.8 64.08 
Q 28.8 74.16 38.88 74.16 
z
" clip-path="url(#p828351fa85)" style="fill: #08427b"/>
   </g>
   <g id="patch_6">
    <path d="M 10.8 406.8 
L 408.24 406.8 
Q 411.84 406.8 411.84 403.2 
L 411.84 90 
Q 411.84 86.4 408.24 86.4 
L 10.8 86.4 
Q 7.2 86.4 7.2 90 
L 7.2 403.2 
Q 7.2 406.8 10.8 406.8 
L 10.8 406.8 
z
" clip-path="url(#p828351fa85)" style="fill: none; stroke-dasharray: 4,2.4; stroke-dashoffset: 0; stroke: #6b6b6b; stroke-width: 0.8; stroke-linejoin: miter"/>
   </g>
   <g id="patch_7">
    <path d="M 25.92 162 
L 107.28 162 
Q 111.6 162 111.6 157.68 
L 111.6 114.48 
Q 111.6 110.16 107.28 110.16 
L 25.92 110.16 
Q 21.6 110.16 21.6 114.48 
L 21.6 157.68 
Q 21.6 162 25.92 162 
z
" clip-path="url(#p828351fa85)" style="fill: #438dd5; stroke: #2e6295; stroke-width: 0.7; stroke-linejoin: miter"/>
   </g>
   <g id="patch_8">
    <path d="M 196.56 165.6 
L 277.92 165.6 
Q 282.24 165.6 282.24 161.28 
L 282.24 118.08 
Q 282.24 113.76 277.92 113.76 
L 196.56 113.76 
Q 192.24 113.76 192.24 118.08 
L 192.24 161.28 
Q 192.24 165.6 196.56 165.6 
z
" clip-path="url(#p828351fa85)" style="fill: #438dd5; stroke: #2e6295; stroke-width: 0.7; stroke-linejoin: miter"/>
   </g>
   <g id="patch_9">
    <path d="M 184.32 280.8 
L 290.88 280.8 
Q 295.2 280.8 295.2 276.48 
L 295.2 233.28 
Q 295.2 228.96 290.88 228.96 
L 184.32 228.96 
Q 180 228.96 180 233.28 
L 180 276.48 
Q 180 280.8 184.32 280.8 
z
" clip-path="url(#p828351fa85)" style="fill: #438dd5; stroke: #2e6295; stroke-width: 0.7; stroke-linejoin: miter"/>
   </g>
   <g id="patch_10">
    <path d="M 88.56 381.6 
L 151.92 381.6 
Q 156.24 381.6 156.24 377.28 
L 156.24 334.08 
Q 156.24 329.76 151.92 329.76 
L 88.56 329.76 
Q 84.24 329.76 84.24 334.08 
L 84.24 377.28 
Q 84.24 381.6 88.56 381.6 
z
" clip-path="url(#p828351fa85)" style="fill: #438dd5; stroke: #2e6295; stroke-width: 0.7; stroke-linejoin: miter"/>
   </g>
   <g id="patch_11">
    <path d="M 164.88 376.56 
L 236.88 376.56 
L 236.88 334.8 
L 164.88 334.8 
z
" clip-path="url(#p828351fa85)" style="fill: #438dd5"/>
   </g>
   <g id="patch_12">
    <path d="M 200.88 381.6 
C 210.427312 381.6 219.584875 381.068954 226.335844 380.123818 
C 233.086813 379.178683 236.88 377.896624 236.88 376.56 
C 236.88 375.223376 233.086813 373.941317 226.335844 372.996182 
C 219.584875 372.051046 210.427312 371.52 200.88 371.52 
C 191.332688 371.52 182.175125 372.051046 175.424156 372.996182 
C 168.673187 373.941317 164.88 375.223376 164.88 376.56 
C 164.88 377.896624 168.673187 379.178683 175.424156 380.123818 
C 182.175125 381.068954 191.332688 381.6 200.88 381.6 
z
" clip-path="url(#p828351fa85)" style="fill: #438dd5; stroke: #2e6295; stroke-width: 0.7; stroke-linejoin: miter"/>
   </g>
   <g id="patch_13">
    <path d="M 200.88 339.84 
C 210.427312 339.84 219.584875 339.308954 226.335844 338.363818 
C 233.086813 337.418683 236.88 336.136624 236.88 334.8 
C 236.88 333.463376 233.086813 332.181317 226.335844 331.236182 
C 219.584875 330.291046 210.427312 329.76 200.88 329.76 
C 191.332688 329.76 182.175125 330.291046 175.424156 331.236182 
C 168.673187 332.181317 164.88 333.463376 164.88 334.8 
C 164.88 336.136624 168.673187 337.418683 175.424156 338.363818 
C 182.175125 339.308954 191.332688 339.84 200.88 339.84 
z
" clip-path="url(#p828351fa85)" style="fill: #5a9fe0; stroke: #2e6295; stroke-width: 0.7; stroke-linejoin: miter"/>
   </g>
   <g id="patch_14">
    <path d="M 245.52 376.56 
L 317.52 376.56 
L 317.52 334.8 
L 245.52 334.8 
z
" clip-path="url(#p828351fa85)" style="fill: #438dd5"/>
   </g>
   <g id="patch_15">
    <path d="M 281.52 381.6 
C 291.067312 381.6 300.224875 381.068954 306.975844 380.123818 
C 313.726813 379.178683 317.52 377.896624 317.52 376.56 
C 317.52 375.223376 313.726813 373.941317 306.975844 372.996182 
C 300.224875 372.051046 291.067312 371.52 281.52 371.52 
C 271.972688 371.52 262.815125 372.051046 256.064156 372.996182 
C 249.313187 373.941317 245.52 375.223376 245.52 376.56 
C 245.52 377.896624 249.313187 379.178683 256.064156 380.123818 
C 262.815125 381.068954 271.972688 381.6 281.52 381.6 
z
" clip-path="url(#p828351fa85)" style="fill: #438dd5; stroke: #2e6295; stroke-width: 0.7; stroke-linejoin: miter"/>
   </g>
   <g id="patch_16">
    <path d="M 281.52 339.84 
C 291.067312 339.84 300.224875 339.308954 306.975844 338.363818 
C 313.726813 337.418683 317.52 336.136624 317.52 334.8 
C 317.52 333.463376 313.726813 332.181317 306.975844 331.236182 
C 300.224875 330.291046 291.067312 329.76 281.52 329.76 
C 271.972688 329.76 262.815125 330.291046 256.064156 331.236182 
C 249.313187 332.181317 245.52 333.463376 245.52 334.8 
C 245.52 336.136624 249.313187 337.418683 256.064156 338.363818 
C 262.815125 339.308954 271.972688 339.84 281.52 339.84 
z
" clip-path="url(#p828351fa85)" style="fill: #5a9fe0; stroke: #2e6295; stroke-width: 0.7; stroke-linejoin: miter"/>
   </g>
   <g id="patch_17">
    <path d="M 330.48 381.6 
L 385.92 381.6 
Q 390.24 381.6 390.24 377.28 
L 390.24 334.08 
Q 390.24 329.76 385.92 329.76 
L 330.48 329.76 
Q 326.16 329.76 326.16 334.08 
L 326.16 377.28 
Q 326.16 381.6 330.48 381.6 
z
" clip-path="url(#p828351fa85)" style="fill: #438dd5; stroke: #2e6295; stroke-width: 0.7; stroke-linejoin: miter"/>
   </g>
   <g id="patch_18">
    <path d="M 425.52 234 
L 496.08 234 
Q 500.4 234 500.4 229.68 
L 500.4 186.48 
Q 500.4 182.16 496.08 182.16 
L 425.52 182.16 
Q 421.2 182.16 421.2 186.48 
L 421.2 229.68 
Q 421.2 234 425.52 234 
z
" clip-path="url(#p828351fa85)" style="fill: #8a8a8a; stroke: #6b6b6b; stroke-width: 0.7; stroke-linejoin: miter"/>
   </g>
   <g id="patch_19">
    <path d="M 425.52 316.8 
L 496.08 316.8 
Q 500.4 316.8 500.4 312.48 
L 500.4 269.28 
Q 500.4 264.96 496.08 264.96 
L 425.52 264.96 
Q 421.2 264.96 421.2 269.28 
L 421.2 312.48 
Q 421.2 316.8 425.52 316.8 
z
" clip-path="url(#p828351fa85)" style="fill: #8a8a8a; stroke: #6b6b6b; stroke-width: 0.7; stroke-linejoin: miter"/>
   </g>
   <g id="patch_20">
    <path d="M 68.350122 75.157559 
Q 67.49995 92.161003 66.68886 108.3828 
" clip-path="url(#p828351fa85)" style="fill: none; stroke-dasharray: 2.1,1.4; stroke-dashoffset: 0; stroke: #707070; stroke-width: 0.7; stroke-linecap: round"/>
    <path d="M 68.007213 106.045719 
L 66.68886 108.3828 
L 65.610207 105.925869 
z
" clip-path="url(#p828351fa85)" style="fill: #707070; stroke-dasharray: 2.1,1.4; stroke-dashoffset: 0; stroke: #707070; stroke-width: 0.7; stroke-linecap: round"/>
   </g>
   <g id="patch_21">
    <path d="M 108.923832 50.785752 
Q 183.86936 82.079733 258.092695 113.072157 
" clip-path="url(#p828351fa85)" style="fill: none; stroke-dasharray: 2.1,1.4; stroke-dashoffset: 0; stroke: #707070; stroke-width: 0.7; stroke-linecap: round"/>
    <path d="M 256.340388 111.04006 
L 258.092695 113.072157 
L 255.415633 113.254744 
z
" clip-path="url(#p828351fa85)" style="fill: #707070; stroke-dasharray: 2.1,1.4; stroke-dashoffset: 0; stroke: #707070; stroke-width: 0.7; stroke-linecap: round"/>
   </g>
   <g id="patch_22">
    <path d="M 112.599141 136.124604 
Q 151.921329 137.880059 190.461672 139.60061 
" clip-path="url(#p828351fa85)" style="fill: none; stroke-dasharray: 2.1,1.4; stroke-dashoffset: 0; stroke: #707070; stroke-width: 0.7; stroke-linecap: round"/>
    <path d="M 188.117578 138.294768 
L 190.461672 139.60061 
L 188.010542 140.69238 
z
" clip-path="url(#p828351fa85)" style="fill: #707070; stroke-dasharray: 2.1,1.4; stroke-dashoffset: 0; stroke: #707070; stroke-width: 0.7; stroke-linecap: round"/>
   </g>
   <g id="patch_23">
    <path d="M 192.99088 281.354326 
Q 157.031724 305.280184 121.724142 328.772508 
" clip-path="url(#p828351fa85)" style="fill: none; stroke-dasharray: 2.1,1.4; stroke-dashoffset: 0; stroke: #707070; stroke-width: 0.7; stroke-linecap: round"/>
    <path d="M 124.387003 328.442094 
L 121.724142 328.772508 
L 123.057528 326.443971 
z
" clip-path="url(#p828351fa85)" style="fill: #707070; stroke-dasharray: 2.1,1.4; stroke-dashoffset: 0; stroke: #707070; stroke-width: 0.7; stroke-linecap: round"/>
   </g>
   <g id="patch_24">
    <path d="M 222.21922 281.711426 
Q 211.75214 305.279685 201.602718 328.132688 
" clip-path="url(#p828351fa85)" style="fill: none; stroke-dasharray: 2.1,1.4; stroke-dashoffset: 0; stroke: #707070; stroke-width: 0.7; stroke-linecap: round"/>
    <path d="M 203.673559 326.426341 
L 201.602718 328.132688 
L 201.480145 325.452207 
z
" clip-path="url(#p828351fa85)" style="fill: #707070; stroke-dasharray: 2.1,1.4; stroke-dashoffset: 0; stroke: #707070; stroke-width: 0.7; stroke-linecap: round"/>
   </g>
   <g id="patch_25">
    <path d="M 253.086548 281.663613 
Q 267.049032 305.281746 280.613239 328.226175 
" clip-path="url(#p828351fa85)" style="fill: none; stroke-dasharray: 2.1,1.4; stroke-dashoffset: 0; stroke: #707070; stroke-width: 0.7; stroke-linecap: round"/>
    <path d="M 280.42487 325.549514 
L 280.613239 328.226175 
L 278.358888 326.770873 
z
" clip-path="url(#p828351fa85)" style="fill: #707070; stroke-dasharray: 2.1,1.4; stroke-dashoffset: 0; stroke: #707070; stroke-width: 0.7; stroke-linecap: round"/>
   </g>
   <g id="patch_26">
    <path d="M 282.217669 281.336396 
Q 319.787973 305.279983 356.698288 328.802957 
" clip-path="url(#p828351fa85)" style="fill: none; stroke-dasharray: 2.1,1.4; stroke-dashoffset: 0; stroke: #707070; stroke-width: 0.7; stroke-linecap: round"/>
    <path d="M 355.319285 326.501142 
L 356.698288 328.802957 
L 354.029434 328.52507 
z
" clip-path="url(#p828351fa85)" style="fill: #707070; stroke-dasharray: 2.1,1.4; stroke-dashoffset: 0; stroke: #707070; stroke-width: 0.7; stroke-linecap: round"/>
   </g>
   <g id="patch_27">
    <path d="M 296.165149 241.660789 
Q 358.199881 225.000032 419.478774 208.542272 
" clip-path="url(#p828351fa85)" style="fill: none; stroke-dasharray: 2.1,1.4; stroke-dashoffset: 0; stroke: #d55e00; stroke-width: 0.7; stroke-linecap: round"/>
    <path d="M 416.849657 208.005853 
L 419.478774 208.542272 
L 417.472168 210.323714 
z
" clip-path="url(#p828351fa85)" style="fill: #d55e00; stroke-dasharray: 2.1,1.4; stroke-dashoffset: 0; stroke: #d55e00; stroke-width: 0.7; stroke-linecap: round"/>
   </g>
   <g id="patch_28">
    <path d="M 296.18053 268.019297 
Q 358.2 279.36 419.449611 290.559929 
" clip-path="url(#p828351fa85)" style="fill: none; stroke-dasharray: 2.1,1.4; stroke-dashoffset: 0; stroke: #d55e00; stroke-width: 0.7; stroke-linecap: round"/>
    <path d="M 417.304606 288.947802 
L 419.449611 290.559929 
L 416.872907 291.308657 
z
" clip-path="url(#p828351fa85)" style="fill: #d55e00; stroke-dasharray: 2.1,1.4; stroke-dashoffset: 0; stroke: #d55e00; stroke-width: 0.7; stroke-linecap: round"/>
   </g>
   <g id="patch_29">
    <path d="M 267.84 18.72 
L 277.92 18.72 
Q 279.36 18.72 279.36 17.28 
L 279.36 11.52 
Q 279.36 10.08 277.92 10.08 
L 267.84 10.08 
Q 266.4 10.08 266.4 11.52 
L 266.4 17.28 
Q 266.4 18.72 267.84 18.72 
z
" clip-path="url(#p828351fa85)" style="fill: #08427b"/>
   </g>
   <g id="patch_30">
    <path d="M 339.84 18.72 
L 349.92 18.72 
Q 351.36 18.72 351.36 17.28 
L 351.36 11.52 
Q 351.36 10.08 349.92 10.08 
L 339.84 10.08 
Q 338.4 10.08 338.4 11.52 
L 338.4 17.28 
Q 338.4 18.72 339.84 18.72 
z
" clip-path="url(#p828351fa85)" style="fill: #438dd5"/>
   </g>
   <g id="patch_31">
    <path d="M 415.44 18.72 
L 425.52 18.72 
Q 426.96 18.72 426.96 17.28 
L 426.96 11.52 
Q 426.96 10.08 425.52 10.08 
L 415.44 10.08 
Q 414 10.08 414 11.52 
L 414 17.28 
Q 414 18.72 415.44 18.72 
z
" clip-path="url(#p828351fa85)" style="fill: #8a8a8a"/>
   </g>
   <g id="patch_32">
    <path d="M 267.84 34.56 
L 277.92 34.56 
Q 279.36 34.56 279.36 33.12 
L 279.36 27.36 
Q 279.36 25.92 277.92 25.92 
L 267.84 25.92 
Q 266.4 25.92 266.4 27.36 
L 266.4 33.12 
Q 266.4 34.56 267.84 34.56 
L 267.84 34.56 
z
" clip-path="url(#p828351fa85)" style="fill: none; stroke-dasharray: 2.1,1.05; stroke-dashoffset: 0; stroke: #6b6b6b; stroke-width: 0.7; stroke-linejoin: miter"/>
   </g>
   <g id="patch_33">
    <path d="M 339.84 34.56 
L 349.92 34.56 
Q 351.36 34.56 351.36 33.12 
L 351.36 27.36 
Q 351.36 25.92 349.92 25.92 
L 339.84 25.92 
Q 338.4 25.92 338.4 27.36 
L 338.4 33.12 
Q 338.4 34.56 339.84 34.56 
z
" clip-path="url(#p828351fa85)" style="fill: #e6f4ef; stroke-dasharray: 2.4,1.2; stroke-dashoffset: 0; stroke: #009e73; stroke-width: 0.8; stroke-linejoin: miter"/>
   </g>
   <g id="patch_34">
    <path d="M 420.48 34.56 
L 421.2 34.56 
Q 422.64 34.56 422.64 33.12 
L 422.64 27.36 
Q 422.64 25.92 421.2 25.92 
L 420.48 25.92 
Q 419.04 25.92 419.04 27.36 
L 419.04 33.12 
Q 419.04 34.56 420.48 34.56 
z
" clip-path="url(#p828351fa85)" style="fill: #d55e00"/>
   </g>
   <g id="patch_35">
    <path d="M 268.400391 46.08 
Q 273.59969 46.08 278.016365 46.08 
" clip-path="url(#p828351fa85)" style="fill: none; stroke-dasharray: 2.1,1.4; stroke-dashoffset: 0; stroke: #707070; stroke-width: 0.7; stroke-linecap: round"/>
    <path d="M 275.616365 44.88 
L 278.016365 46.08 
L 275.616365 47.28 
z
" clip-path="url(#p828351fa85)" style="fill: #707070; stroke-dasharray: 2.1,1.4; stroke-dashoffset: 0; stroke: #707070; stroke-width: 0.7; stroke-linecap: round"/>
   </g>
   <g id="line2d_1">
    <path d="M 164.88 376.56 
L 164.88 334.8 
" clip-path="url(#p828351fa85)" style="fill: none; stroke: #2e6295; stroke-width: 0.7; stroke-linecap: square"/>
   </g>
   <g id="line2d_2">
    <path d="M 236.88 376.56 
L 236.88 334.8 
" clip-path="url(#p828351fa85)" style="fill: none; stroke: #2e6295; stroke-width: 0.7; stroke-linecap: square"/>
   </g>
   <g id="line2d_3">
    <path d="M 245.52 376.56 
L 245.52 334.8 
" clip-path="url(#p828351fa85)" style="fill: none; stroke: #2e6295; stroke-width: 0.7; stroke-linecap: square"/>
   </g>
   <g id="line2d_4">
    <path d="M 317.52 376.56 
L 317.52 334.8 
" clip-path="url(#p828351fa85)" style="fill: none; stroke: #2e6295; stroke-width: 0.7; stroke-linecap: square"/>
   </g>
   <g id="text_1">
    <text style="font-weight: 700; font-size: 7px; font-family: 'Arial', sans-serif; text-anchor: middle; fill: #ffffff" x="68.4" y="39.971523" transform="rotate(-0 68.4 39.971523)">Researcher</text>
   </g>
   <g id="text_2">
    <text style="font-size: 5.3px; font-family: 'Arial', sans-serif; text-anchor: middle; fill: #ffffff" x="68.4" y="49.611582" transform="rotate(-0 68.4 49.611582)">[Person]</text>
   </g>
   <g id="text_3">
    <text style="font-size: 5.5px; font-family: 'Arial', sans-serif; fill: #ffffff" transform="translate(49.446484 59.653904)">asks questions,</text>
    <text style="font-size: 5.5px; font-family: 'Arial', sans-serif; fill: #ffffff" transform="translate(44.552773 65.589768)">uploads documents</text>
   </g>
   <g id="text_4">
    <text style="font-weight: 700; font-size: 7px; font-family: 'Arial', sans-serif; text-anchor: start; fill: #333333" x="14.4" y="398.126855" transform="rotate(-0 14.4 398.126855)">Munin</text>
   </g>
   <g id="text_5">
    <text style="font-size: 5.5px; font-family: 'Arial', sans-serif; text-anchor: start; fill: #333333" x="45.36" y="398.442422" transform="rotate(-0 45.36 398.442422)">[Software System]</text>
   </g>
   <g id="text_6">
    <text style="font-weight: 700; font-size: 7.4px; font-family: 'Arial', sans-serif; text-anchor: start; fill: #57606a" x="182.16" y="106.187402" transform="rotate(-0 182.16 106.187402)">Gateway</text>
   </g>
   <g id="text_7">
    <text style="font-weight: 700; font-size: 7.4px; font-family: 'Arial', sans-serif; text-anchor: start; fill: #009e73" x="81.36" y="227.147402" transform="rotate(-0 81.36 227.147402)">Cluster</text>
   </g>
   <g id="text_8">
    <text style="font-weight: 700; font-size: 7px; font-family: 'Arial', sans-serif; text-anchor: middle; fill: #ffffff" x="66.6" y="125.651523" transform="rotate(-0 66.6 125.651523)">Chat UI</text>
   </g>
   <g id="text_9">
    <text style="font-size: 5.3px; font-family: 'Arial', sans-serif; text-anchor: middle; fill: #ffffff" x="66.6" y="135.291582" transform="rotate(-0 66.6 135.291582)">[Container: React SPA]</text>
   </g>
   <g id="text_10">
    <text style="font-size: 5.5px; font-family: 'Arial', sans-serif; fill: #ffffff" transform="translate(49.482109 145.301677)">chat, projects,</text>
    <text style="font-size: 5.5px; font-family: 'Arial', sans-serif; fill: #ffffff" transform="translate(56.972852 151.81762)">artifacts</text>
   </g>
   <g id="text_11">
    <text style="font-weight: 700; font-size: 7px; font-family: 'Arial', sans-serif; text-anchor: middle; fill: #ffffff" x="237.24" y="129.251455" transform="rotate(-0 237.24 129.251455)">Gateway</text>
   </g>
   <g id="text_12">
    <text style="font-size: 5.3px; font-family: 'Arial', sans-serif; text-anchor: middle; fill: #ffffff" x="237.24" y="138.89153" transform="rotate(-0 237.24 138.89153)">[Container: Caddy, Python]</text>
   </g>
   <g id="text_13">
    <text style="font-size: 5.5px; font-family: 'Arial', sans-serif; fill: #ffffff" transform="translate(224.095 148.935193)">TLS, login,</text>
    <text style="font-size: 5.5px; font-family: 'Arial', sans-serif; fill: #ffffff" transform="translate(216.605117 154.837542)">API keys, quotas</text>
   </g>
   <g id="text_14">
    <text style="font-weight: 700; font-size: 7px; font-family: 'Arial', sans-serif; text-anchor: middle; fill: #ffffff" x="237.6" y="244.451523" transform="rotate(-0 237.6 244.451523)">Harness API</text>
   </g>
   <g id="text_15">
    <text style="font-size: 5.3px; font-family: 'Arial', sans-serif; text-anchor: middle; fill: #ffffff" x="237.6" y="254.09153" transform="rotate(-0 237.6 254.09153)">[Container: Python, FastAPI]</text>
   </g>
   <g id="text_16">
    <text style="font-size: 5.5px; font-family: 'Arial', sans-serif; fill: #ffffff" transform="translate(220.020625 264.057419)">router, agents,</text>
    <text style="font-size: 5.5px; font-family: 'Arial', sans-serif; fill: #ffffff" transform="translate(224.966328 270.616331)">MCP tools</text>
   </g>
   <g id="text_17">
    <text style="font-weight: 700; font-size: 7px; font-family: 'Arial', sans-serif; text-anchor: middle; fill: #ffffff" x="120.24" y="345.251523" transform="rotate(-0 120.24 345.251523)">LLM server</text>
   </g>
   <g id="text_18">
    <text style="font-size: 5.3px; font-family: 'Arial', sans-serif; text-anchor: middle; fill: #ffffff" x="120.24" y="354.891582" transform="rotate(-0 120.24 354.891582)">[Container: vLLM]</text>
   </g>
   <g id="text_19">
    <text style="font-size: 5.5px; font-family: 'Arial', sans-serif; fill: #ffffff" transform="translate(96.701289 364.969138)">OpenAI-compatible</text>
    <text style="font-size: 5.5px; font-family: 'Arial', sans-serif; fill: #ffffff" transform="translate(108.928047 371.41762)">inference</text>
   </g>
   <g id="text_20">
    <text style="font-weight: 700; font-size: 7px; font-family: 'Arial', sans-serif; text-anchor: middle; fill: #ffffff" x="200.88" y="348.131523" transform="rotate(-0 200.88 348.131523)">Vector store</text>
   </g>
   <g id="text_21">
    <text style="font-size: 5.3px; font-family: 'Arial', sans-serif; text-anchor: middle; fill: #ffffff" x="200.88" y="357.773083" transform="rotate(-0 200.88 357.773083)">[Container: Qdrant]</text>
   </g>
   <g id="text_22">
    <text style="font-size: 5.5px; font-family: 'Arial', sans-serif; fill: #ffffff" transform="translate(188.495547 367.813904)">paper and</text>
    <text style="font-size: 5.5px; font-family: 'Arial', sans-serif; fill: #ffffff" transform="translate(179.327305 374.264104)">document chunks</text>
   </g>
   <g id="text_23">
    <text style="font-weight: 700; font-size: 7px; font-family: 'Arial', sans-serif; text-anchor: middle; fill: #ffffff" x="281.52" y="348.131455" transform="rotate(-0 281.52 348.131455)">Citation graph</text>
   </g>
   <g id="text_24">
    <text style="font-size: 5.3px; font-family: 'Arial', sans-serif; text-anchor: middle; fill: #ffffff" x="281.52" y="357.77153" transform="rotate(-0 281.52 357.77153)">[Container: Neo4j]</text>
   </g>
   <g id="text_25">
    <text style="font-size: 5.5px; font-family: 'Arial', sans-serif; fill: #ffffff" transform="translate(261.648672 367.813904)">papers, authors,</text>
    <text style="font-size: 5.5px; font-family: 'Arial', sans-serif; fill: #ffffff" transform="translate(271.432227 374.264104)">citations</text>
   </g>
   <g id="text_26">
    <text style="font-weight: 700; font-size: 7px; font-family: 'Arial', sans-serif; text-anchor: middle; fill: #ffffff" x="358.2" y="345.251523" transform="rotate(-0 358.2 345.251523)">Sandbox</text>
   </g>
   <g id="text_27">
    <text style="font-size: 5.3px; font-family: 'Arial', sans-serif; text-anchor: middle; fill: #ffffff" x="358.2" y="354.89153" transform="rotate(-0 358.2 354.89153)">[Container: Jupyter]</text>
   </g>
   <g id="text_28">
    <text style="font-size: 5.5px; font-family: 'Arial', sans-serif; text-anchor: middle; fill: #ffffff" x="358.2" y="368.416172" transform="rotate(-0 358.2 368.416172)">no network</text>
   </g>
   <g id="text_29">
    <text style="font-weight: 700; font-size: 7px; font-family: 'Arial', sans-serif; text-anchor: middle; fill: #ffffff" x="460.8" y="197.651455" transform="rotate(-0 460.8 197.651455)">Scholarly APIs</text>
   </g>
   <g id="text_30">
    <text style="font-size: 5.3px; font-family: 'Arial', sans-serif; text-anchor: middle; fill: #ffffff" x="460.8" y="207.29153" transform="rotate(-0 460.8 207.29153)">[Software System]</text>
   </g>
   <g id="text_31">
    <text style="font-size: 5.5px; font-family: 'Arial', sans-serif; fill: #ffffff" transform="translate(438.637148 217.524685)">Semantic Scholar,</text>
    <text style="font-size: 5.5px; font-family: 'Arial', sans-serif; fill: #ffffff" transform="translate(448.113906 223.237542)">Unpaywall</text>
   </g>
   <g id="text_32">
    <text style="font-weight: 700; font-size: 7px; font-family: 'Arial', sans-serif; text-anchor: middle; fill: #ffffff" x="460.8" y="280.451523" transform="rotate(-0 460.8 280.451523)">Web search</text>
   </g>
   <g id="text_33">
    <text style="font-size: 5.3px; font-family: 'Arial', sans-serif; text-anchor: middle; fill: #ffffff" x="460.8" y="290.09153" transform="rotate(-0 460.8 290.09153)">[Software System]</text>
   </g>
   <g id="text_34">
    <text style="font-size: 5.5px; font-family: 'Arial', sans-serif; text-anchor: middle; fill: #ffffff" x="460.8" y="303.292617" transform="rotate(-0 460.8 303.292617)">Brave, SearXNG</text>
   </g>
   <g id="text_35">
    <g id="patch_36">
     <path d="M 56.917391 103.815318 
L 78.082609 103.815318 
L 78.082609 92.024682 
L 56.917391 92.024682 
z
" style="fill: #ffffff"/>
    </g>
    <text style="font-size: 5.3px; font-family: 'Arial', sans-serif; fill: #333333" transform="translate(61.462555 97.048864)">Uses</text>
    <text style="font-size: 5.3px; font-family: 'Arial', sans-serif; fill: #333333" transform="translate(57.341391 102.058089)">[HTTPS]</text>
   </g>
   <g id="text_36">
    <g id="patch_37">
     <path d="M 152.987117 80.055318 
L 214.212883 80.055318 
L 214.212883 68.264682 
L 152.987117 68.264682 
z
" style="fill: #ffffff"/>
    </g>
    <text style="font-size: 5.3px; font-family: 'Arial', sans-serif; fill: #333333" transform="translate(168.42875 73.321161)">Calls the API</text>
    <text style="font-size: 5.3px; font-family: 'Arial', sans-serif; fill: #333333" transform="translate(153.411117 78.299745)">[OpenAI-compat. HTTPS]</text>
   </g>
   <g id="text_37">
    <g id="patch_38">
     <path d="M 129.192383 143.775318 
L 167.447617 143.775318 
L 167.447617 131.984682 
L 129.192383 131.984682 
z
" style="fill: #ffffff"/>
    </g>
    <text style="font-size: 5.3px; font-family: 'Arial', sans-serif; fill: #333333" transform="translate(129.616383 137.010106)">Makes API calls</text>
    <text style="font-size: 5.3px; font-family: 'Arial', sans-serif; fill: #333333" transform="translate(130.357555 142.019745)">[JSON/HTTPS]</text>
   </g>
   <g id="text_38">
    <g id="patch_39">
     <path d="M 138.786336 311.175318 
L 175.277664 311.175318 
L 175.277664 299.384682 
L 138.786336 299.384682 
z
" style="fill: #ffffff"/>
    </g>
    <text style="font-size: 5.3px; font-family: 'Arial', sans-serif; fill: #333333" transform="translate(139.210336 304.441161)">Generates with</text>
    <text style="font-size: 5.3px; font-family: 'Arial', sans-serif; fill: #333333" transform="translate(148.641023 309.385792)">[HTTP]</text>
   </g>
   <g id="text_39">
    <g id="patch_40">
     <path d="M 200.133406 311.175318 
L 223.370594 311.175318 
L 223.370594 299.384682 
L 200.133406 299.384682 
z
" style="fill: #ffffff"/>
    </g>
    <text style="font-size: 5.3px; font-family: 'Arial', sans-serif; fill: #333333" transform="translate(200.557406 304.441161)">Searches</text>
    <text style="font-size: 5.3px; font-family: 'Arial', sans-serif; fill: #333333" transform="translate(203.361023 309.385792)">[HTTP]</text>
   </g>
   <g id="text_40">
    <g id="patch_41">
     <path d="M 257.345687 311.175318 
L 276.750312 311.175318 
L 276.750312 299.384682 
L 257.345687 299.384682 
z
" style="fill: #ffffff"/>
    </g>
    <text style="font-size: 5.3px; font-family: 'Arial', sans-serif; fill: #333333" transform="translate(257.769687 304.327708)">Queries</text>
    <text style="font-size: 5.3px; font-family: 'Arial', sans-serif; fill: #333333" transform="translate(261.009313 309.385792)">[Bolt]</text>
   </g>
   <g id="text_41">
    <g id="patch_42">
     <path d="M 303.897109 311.175318 
L 335.678891 311.175318 
L 335.678891 299.384682 
L 303.897109 299.384682 
z
" style="fill: #ffffff"/>
    </g>
    <text style="font-size: 5.3px; font-family: 'Arial', sans-serif; fill: #333333" transform="translate(304.321109 304.410106)">Runs code in</text>
    <text style="font-size: 5.3px; font-family: 'Arial', sans-serif; fill: #333333" transform="translate(311.397023 309.385792)">[HTTP]</text>
   </g>
   <g id="patch_43">
    <path d="M 237.6 228.96 
L 237.6 228.96 
Q 242.28 228.96 242.28 224.28 
L 242.28 170.28 
Q 242.28 165.6 237.6 165.6 
L 237.6 165.6 
Q 232.92 165.6 232.92 170.28 
L 232.92 224.28 
Q 232.92 228.96 237.6 228.96 
z
" clip-path="url(#p828351fa85)" style="fill: #ffffff; stroke: #1f2328; stroke-width: 0.6; stroke-linejoin: miter"/>
   </g>
   <g id="text_42">
    <g id="patch_44">
     <path d="M 345.221555 232.695318 
L 367.578445 232.695318 
L 367.578445 220.904682 
L 345.221555 220.904682 
z
" style="fill: #ffffff"/>
    </g>
    <text style="font-size: 5.3px; font-family: 'Arial', sans-serif; fill: #333333" transform="translate(345.645555 225.434474)">Looks up</text>
    <text style="font-size: 5.3px; font-family: 'Arial', sans-serif; fill: #333333" transform="translate(346.241391 230.938089)">[HTTPS]</text>
   </g>
   <g id="text_43">
    <g id="patch_45">
     <path d="M 344.781406 284.535318 
L 368.018594 284.535318 
L 368.018594 272.744682 
L 344.781406 272.744682 
z
" style="fill: #ffffff"/>
    </g>
    <text style="font-size: 5.3px; font-family: 'Arial', sans-serif; fill: #333333" transform="translate(345.205406 277.801161)">Searches</text>
    <text style="font-size: 5.3px; font-family: 'Arial', sans-serif; fill: #333333" transform="translate(346.241391 282.778089)">[HTTPS]</text>
   </g>
   <g id="text_44">
    <text style="font-weight: 700; font-size: 6.5px; font-family: 'Arial', sans-serif; text-anchor: start; fill: #333333" x="241.2" y="16.082065" transform="rotate(-0 241.2 16.082065)">Key</text>
   </g>
   <g id="text_45">
    <text style="font-size: 5.6px; font-family: 'Arial', sans-serif; text-anchor: start; fill: #333333" x="283.68" y="15.849219" transform="rotate(-0 283.68 15.849219)">person</text>
   </g>
   <g id="text_46">
    <text style="font-size: 5.6px; font-family: 'Arial', sans-serif; text-anchor: start; fill: #333333" x="355.68" y="15.849219" transform="rotate(-0 355.68 15.849219)">container</text>
   </g>
   <g id="text_47">
    <text style="font-size: 5.6px; font-family: 'Arial', sans-serif; text-anchor: start; fill: #333333" x="431.28" y="15.849164" transform="rotate(-0 431.28 15.849164)">external system</text>
   </g>
   <g id="text_48">
    <text style="font-size: 5.6px; font-family: 'Arial', sans-serif; text-anchor: start; fill: #333333" x="283.68" y="31.689164" transform="rotate(-0 283.68 31.689164)">system boundary</text>
   </g>
   <g id="text_49">
    <text style="font-size: 5.6px; font-family: 'Arial', sans-serif; text-anchor: start; fill: #333333" x="355.68" y="31.689164" transform="rotate(-0 355.68 31.689164)">trust boundary</text>
   </g>
   <g id="text_50">
    <text style="font-size: 5.6px; font-family: 'Arial', sans-serif; text-anchor: start; fill: #333333" x="431.28" y="31.689164" transform="rotate(-0 431.28 31.689164)">egress gate  [level]</text>
   </g>
   <g id="text_51">
    <text style="font-size: 5.6px; font-family: 'Arial', sans-serif; text-anchor: start; fill: #333333" x="283.68" y="47.529219" transform="rotate(-0 283.68 47.529219)">relationship  [protocol]</text>
   </g>
   <g id="text_52">
    <text style="font-size: 5.6px; font-family: 'Arial', sans-serif; text-anchor: start; fill: #333333" x="431.28" y="47.529219" transform="rotate(-0 431.28 47.529219)">connection opened</text>
   </g>
   <g id="patch_46">
    <path d="M 237.6 169.2 
Q 237.6 198 237.6 225.905573 
" clip-path="url(#p828351fa85)" style="fill: none; stroke: #1f2328; stroke-width: 0.8; stroke-linecap: round"/>
    <path d="M 238.4 224.305573 
L 237.6 225.905573 
L 236.8 224.305573 
z
" clip-path="url(#p828351fa85)" style="fill: #1f2328; stroke: #1f2328; stroke-width: 0.8; stroke-linecap: round"/>
   </g>
   <g id="patch_47">
    <path d="M 225.36 227.52 
Q 225.36 198 225.36 169.374427 
" clip-path="url(#p828351fa85)" style="fill: none; stroke: #009e73; stroke-width: 0.8; stroke-linecap: round"/>
    <path d="M 224.56 170.974427 
L 225.36 169.374427 
L 226.16 170.974427 
z
" clip-path="url(#p828351fa85)" style="fill: #009e73; stroke: #009e73; stroke-width: 0.8; stroke-linecap: round"/>
   </g>
   <g id="patch_48">
    <path d="M 18 266.4 
Q 43.2 266.4 67.72918 266.4 
" clip-path="url(#p828351fa85)" style="fill: none; stroke: #8c959f; stroke-width: 0.6; stroke-linecap: round"/>
    <path d="M 66.12918 265.6 
L 67.72918 266.4 
L 66.12918 267.2 
z
" clip-path="url(#p828351fa85)" style="fill: #8c959f; stroke: #8c959f; stroke-width: 0.6; stroke-linecap: round"/>
   </g>
   <g id="patch_49">
    <path d="M 403.2 309.6 
L 403.2 309.6 
Q 405.36 309.6 405.36 307.44 
L 405.36 189.36 
Q 405.36 187.2 403.2 187.2 
L 403.2 187.2 
Q 401.04 187.2 401.04 189.36 
L 401.04 307.44 
Q 401.04 309.6 403.2 309.6 
z
" clip-path="url(#p828351fa85)" style="fill: #d55e00"/>
   </g>
   <g id="patch_50">
    <path d="M 414 46.08 
Q 421.2 46.08 427.505573 46.08 
" clip-path="url(#p828351fa85)" style="fill: none; stroke: #009e73; stroke-width: 0.8; stroke-linecap: round"/>
    <path d="M 425.905573 45.28 
L 427.505573 46.08 
L 425.905573 46.88 
z
" clip-path="url(#p828351fa85)" style="fill: #009e73; stroke: #009e73; stroke-width: 0.8; stroke-linecap: round"/>
   </g>
   <g id="text_53">
    <text style="font-weight: 700; font-size: 6.2px; font-family: 'Arial', sans-serif; text-anchor: start; fill: #1f2328" x="247.68" y="187.364492" transform="rotate(-0 247.68 187.364492)">reverse SSH tunnel</text>
   </g>
   <g id="text_54">
    <text style="font-size: 5.8px; font-family: 'Arial', sans-serif; text-anchor: start; fill: #57606a" x="258.48" y="204.54092" transform="rotate(-0 258.48 204.54092)">requests + identity in</text>
   </g>
   <g id="text_55">
    <text style="font-size: 5.8px; font-family: 'Arial', sans-serif; text-anchor: end; fill: #57606a" x="209.52" y="204.540977" transform="rotate(-0 209.52 204.540977)">cluster dials out</text>
   </g>
   <g id="text_56">
    <text style="font-size: 5.8px; font-family: 'Arial', sans-serif; text-anchor: middle; fill: #d55e00" x="43.2" y="277.260977" transform="rotate(-0 43.2 277.260977)">inbound refused</text>
   </g>
   <g id="text_57">
    <text style="font-weight: 700; font-size: 6px; font-family: 'Arial', sans-serif; text-anchor: middle; fill: #d55e00" x="403.2" y="181.552676" transform="rotate(-0 403.2 181.552676)">egress</text>
   </g>
   <g id="text_58">
    <text style="font-size: 5.4px; font-family: 'Arial', sans-serif; text-anchor: middle; fill: #d55e00" x="460.8" y="241.877408" transform="rotate(-0 460.8 241.877408)">oa_only, full</text>
   </g>
   <g id="text_59">
    <text style="font-size: 5.4px; font-family: 'Arial', sans-serif; text-anchor: middle; fill: #d55e00" x="460.8" y="324.677461" transform="rotate(-0 460.8 324.677461)">full</text>
   </g>
   <g id="patch_51">
    <path d="M 252 207 
C 253.050204 207 254.057536 206.582749 254.800143 205.840143 
C 255.542749 205.097536 255.96 204.090204 255.96 203.04 
C 255.96 201.989796 255.542749 200.982464 254.800143 200.239857 
C 254.057536 199.497251 253.050204 199.08 252 199.08 
C 250.949796 199.08 249.942464 199.497251 249.199857 200.239857 
C 248.457251 200.982464 248.04 201.989796 248.04 203.04 
C 248.04 204.090204 248.457251 205.097536 249.199857 205.840143 
C 249.942464 206.582749 250.949796 207 252 207 
z
" clip-path="url(#p828351fa85)" style="fill: #1f2328"/>
   </g>
   <g id="patch_52">
    <path d="M 216 207 
C 217.050204 207 218.057536 206.582749 218.800143 205.840143 
C 219.542749 205.097536 219.96 204.090204 219.96 203.04 
C 219.96 201.989796 219.542749 200.982464 218.800143 200.239857 
C 218.057536 199.497251 217.050204 199.08 216 199.08 
C 214.949796 199.08 213.942464 199.497251 213.199857 200.239857 
C 212.457251 200.982464 212.04 201.989796 212.04 203.04 
C 212.04 204.090204 212.457251 205.097536 213.199857 205.840143 
C 213.942464 206.582749 214.949796 207 216 207 
z
" clip-path="url(#p828351fa85)" style="fill: #1f2328"/>
   </g>
   <g id="line2d_5">
    <path d="M 70.56 270 
L 77.76 262.8 
" clip-path="url(#p828351fa85)" style="fill: none; stroke: #d55e00; stroke-width: 1.3; stroke-linecap: round"/>
   </g>
   <g id="line2d_6">
    <path d="M 77.76 270 
L 70.56 262.8 
" clip-path="url(#p828351fa85)" style="fill: none; stroke: #d55e00; stroke-width: 1.3; stroke-linecap: round"/>
   </g>
   <g id="text_60">
    <text style="font-weight: 700; font-size: 5.2px; font-family: 'Arial', sans-serif; text-anchor: middle; fill: #ffffff" x="252" y="204.673703" transform="rotate(-0 252 204.673703)">2</text>
   </g>
   <g id="text_61">
    <text style="font-weight: 700; font-size: 5.2px; font-family: 'Arial', sans-serif; text-anchor: middle; fill: #ffffff" x="216" y="204.673703" transform="rotate(-0 216 204.673703)">1</text>
   </g>
  </g>
 </g>
 <defs>
  <clipPath id="p828351fa85">
   <rect x="0" y="0" width="504" height="414"/>
  </clipPath>
 </defs>
</svg>
